<svg xmlns="http://www.w3.org/2000/svg" version="1.1" xmlns:xlink="http://www.w3.org/1999/xlink" xmlns:svgjs="http://svgjs.dev/svgjs" width="1500" height="1500" viewBox="0 0 1500 1500"><rect width="1500" height="1500" fill="#929395"></rect><g transform="matrix(0.6666666666666666,0,0,0.6666666666666666,249.39393939393938,438.5856950067477)"><svg viewBox="0 0 396 247" data-background-color="#929395" preserveAspectRatio="xMidYMid meet" height="935" width="1500" xmlns="http://www.w3.org/2000/svg" xmlns:xlink="http://www.w3.org/1999/xlink"><g id="tight-bounds" transform="matrix(1,0,0,1,0.2400000000000091,-0.09999999999999432)"><svg viewBox="0 0 395.52 247.2" height="247.2" width="395.52"><g><svg></svg></g><g><svg viewBox="0 0 395.52 247.2" height="247.2" width="395.52"><g transform="matrix(1,0,0,1,75.54432,111.01063215451414)"><svg viewBox="0 0 244.43135999999998 25.1787356909717" height="25.1787356909717" width="244.43135999999998"><g><svg viewBox="0 0 244.43135999999998 25.1787356909717" height="25.1787356909717" width="244.43135999999998"><g><svg viewBox="0 0 244.43135999999998 25.1787356909717" height="25.1787356909717" width="244.43135999999998"><g id="textblocktransform"><svg viewBox="0 0 244.43135999999998 25.1787356909717" height="25.1787356909717" width="244.43135999999998" id="textblock"><g><svg viewBox="0 0 244.43135999999998 25.1787356909717" height="25.1787356909717" width="244.43135999999998"><g transform="matrix(1,0,0,1,0,0)"><svg width="244.43135999999998" viewBox="1.95 -33.9 333.92 34.4" height="25.1787356909717" data-palette-color="#000000"><path d="M24.2-9.8L24.2-9.8Q24.2-5.25 20.85-2.43 17.5 0.4 11.95 0.4L11.95 0.4Q6 0.4 2.25-1.7L2.25-1.7 2.25-9.45Q6.8-6.15 11.95-6.15L11.95-6.15Q13.7-6.15 14.85-7.08 16-8 16-9.5L16-9.5Q16-10 15.85-10.45 15.7-10.9 15.3-11.3 14.9-11.7 14.53-11.98 14.15-12.25 13.43-12.63 12.7-13 12.2-13.25 11.7-13.5 10.73-13.95 9.75-14.4 9.15-14.65L9.15-14.65Q5.9-16.15 3.93-18.35 1.95-20.55 1.95-24.2L1.95-24.2Q1.95-28.55 5.15-31.23 8.35-33.9 14-33.9L14-33.9Q19.05-33.9 22.7-32.2L22.7-32.2 22.7-25Q18.65-27.35 14.3-27.35L14.3-27.35Q12.35-27.35 11.33-26.55 10.3-25.75 10.3-24.5 10.3-23.25 11.55-22.28 12.8-21.3 15.3-20.2L15.3-20.2Q16.85-19.5 17.88-18.98 18.9-18.45 20.23-17.53 21.55-16.6 22.33-15.58 23.1-14.55 23.65-13.05 24.2-11.55 24.2-9.8ZM56.1-33.7L56.1-13.05Q56.1-6.45 52.4-2.98 48.7 0.5 42.4 0.5L42.4 0.5Q36.2 0.5 32.45-2.95 28.7-6.4 28.7-12.7L28.7-12.7 28.7-33.7 36.4-33.7 36.4-12.75Q36.4-6.5 42.4-6.5 48.4-6.5 48.4-13L48.4-13 48.4-33.7 56.1-33.7ZM73.84-27.45L73.84-27.45 70.05-27.45 70.05-17.95 73.69-17.95Q78.69-17.95 78.69-22.85L78.69-22.85Q78.69-25 77.39-26.23 76.09-27.45 73.84-27.45ZM70.05-11.7L70.05 0 62.34 0 62.34-33.7 74-33.7Q79.64-33.7 83.07-30.7 86.5-27.7 86.5-22.9L86.5-22.9Q86.5-15.7 80.34-12.95L80.34-12.95 88.89 0 79.69 0 72.39-11.7 70.05-11.7ZM103.24-14.3L103.24-14.3 102.89-13.1 110.99-13.1 110.64-14.3Q109.19-19.2 108.27-22.65 107.34-26.1 107.14-27.1L107.14-27.1 106.94-28.1Q106.54-25.35 103.24-14.3ZM101.04-6.9L98.99 0 90.94 0 102.19-33.7 111.89-33.7 123.14 0 114.89 0 112.84-6.9 101.04-6.9ZM146.44-18.85L146.44-12.7 135.29-12.7 135.29 0 127.54 0 127.54-33.7 148.09-33.7 148.09-27.55 135.29-27.55 135.29-18.85 146.44-18.85ZM173.79-6.15L173.79 0 152.84 0 152.84-33.7 173.59-33.7 173.59-27.55 160.59-27.55 160.59-19.9 172.19-19.9 172.19-13.8 160.59-13.8 160.59-6.15 173.79-6.15ZM200.19-6.75L200.19 0 180.04 0 180.04-33.7 187.74-33.7 187.74-6.75 200.19-6.75ZM233.98-16.85L245.93 0 236.28 0 224.98-16.75 235.88-33.7 245.03-33.7 233.98-16.85ZM224.63-33.7L224.63 0 216.93 0 216.93-33.7 224.63-33.7ZM258.23-33.7L258.23 0 250.53 0 250.53-33.7 258.23-33.7ZM284.13-18.85L284.13-12.7 272.98-12.7 272.98 0 265.23 0 265.23-33.7 285.78-33.7 285.78-27.55 272.98-27.55 272.98-18.85 284.13-18.85ZM310.67-6.75L310.67 0 290.52 0 290.52-33.7 298.22-33.7 298.22-6.75 310.67-6.75ZM335.87-6.15L335.87 0 314.92 0 314.92-33.7 335.67-33.7 335.67-27.55 322.67-27.55 322.67-19.9 334.27-19.9 334.27-13.8 322.67-13.8 322.67-6.15 335.87-6.15Z" opacity="1" transform="matrix(1,0,0,1,0,0)" fill="#000000" class="wordmark-text-0" data-fill-palette-color="primary" id="text-0"></path></svg></g></svg></g></svg></g></svg></g></svg></g></svg></g><path d="M171.904 105.011L171.904 40.008 4.719 40.008 4.719 207.192 171.904 207.192 171.904 142.189 169.633 142.189 169.633 204.922 6.989 204.922 6.989 42.278 169.633 42.278 169.633 105.011Z" fill="#000000" stroke="transparent" data-fill-palette-color="tertiary"></path></svg></g><defs></defs></svg><rect width="395.52" height="247.2" fill="none" stroke="none" visibility="hidden"></rect></g></svg></g></svg>